<mxfile host="app.diagrams.net" modified="2024-05-18T12:49:23.109Z" agent="Mozilla/5.0 (Macintosh; Intel Mac OS X 10_15_7) AppleWebKit/537.36 (KHTML, like Gecko) Chrome/118.0.0.0 Safari/537.36" etag="ix5qfQ9_Xtcda_u-HSGr" version="24.4.4" type="device">
  <diagram name="페이지-1" id="hKb_oDDfv6RiXR2AsoDt">
    <mxGraphModel dx="377" dy="409" grid="1" gridSize="10" guides="1" tooltips="1" connect="1" arrows="1" fold="1" page="1" pageScale="1" pageWidth="827" pageHeight="1169" math="0" shadow="0">
      <root>
        <mxCell id="0" />
        <mxCell id="1" parent="0" />
        <mxCell id="S8HFpGUDUiRMA5G_zweh-30" value="4: filtered mail list" style="html=1;verticalAlign=bottom;endArrow=open;dashed=1;endSize=8;curved=0;rounded=0;" parent="1" edge="1">
          <mxGeometry x="0.0036" relative="1" as="geometry">
            <mxPoint x="750" y="456" as="sourcePoint" />
            <mxPoint x="585" y="456" as="targetPoint" />
            <mxPoint as="offset" />
          </mxGeometry>
        </mxCell>
        <mxCell id="S8HFpGUDUiRMA5G_zweh-31" value="3: search(searchKeword, category)" style="html=1;verticalAlign=bottom;endArrow=block;curved=0;rounded=0;" parent="1" edge="1">
          <mxGeometry x="-0.0014" width="80" relative="1" as="geometry">
            <mxPoint x="580" y="420" as="sourcePoint" />
            <mxPoint x="745" y="420" as="targetPoint" />
            <mxPoint as="offset" />
          </mxGeometry>
        </mxCell>
        <mxCell id="S8HFpGUDUiRMA5G_zweh-32" value="" style="shape=umlLifeline;perimeter=lifelinePerimeter;whiteSpace=wrap;html=1;container=1;dropTarget=0;collapsible=0;recursiveResize=0;outlineConnect=0;portConstraint=eastwest;newEdgeStyle={&quot;curved&quot;:0,&quot;rounded&quot;:0};participant=umlActor;" parent="1" vertex="1">
          <mxGeometry x="560" y="275" width="20" height="205" as="geometry" />
        </mxCell>
        <mxCell id="S8HFpGUDUiRMA5G_zweh-33" value="" style="html=1;points=[[0,0,0,0,5],[0,1,0,0,-5],[1,0,0,0,5],[1,1,0,0,-5]];perimeter=orthogonalPerimeter;outlineConnect=0;targetShapes=umlLifeline;portConstraint=eastwest;newEdgeStyle={&quot;curved&quot;:0,&quot;rounded&quot;:0};" parent="S8HFpGUDUiRMA5G_zweh-32" vertex="1">
          <mxGeometry x="5" y="40" width="10" height="160" as="geometry" />
        </mxCell>
        <mxCell id="S8HFpGUDUiRMA5G_zweh-34" value="User" style="text;html=1;align=center;verticalAlign=middle;whiteSpace=wrap;rounded=0;" parent="1" vertex="1">
          <mxGeometry x="550" y="250" width="60" height="30" as="geometry" />
        </mxCell>
        <mxCell id="S8HFpGUDUiRMA5G_zweh-35" value="&lt;span style=&quot;background-color: rgb(255, 255, 255);&quot;&gt;1:&amp;nbsp;&lt;span style=&quot;font-family: &amp;quot;JetBrains Mono&amp;quot;, monospace; font-size: 9.8pt;&quot;&gt;mainMenu()&lt;/span&gt;&lt;/span&gt;" style="html=1;verticalAlign=bottom;endArrow=block;curved=0;rounded=0;" parent="1" source="S8HFpGUDUiRMA5G_zweh-33" target="S8HFpGUDUiRMA5G_zweh-38" edge="1">
          <mxGeometry width="80" relative="1" as="geometry">
            <mxPoint x="590" y="340" as="sourcePoint" />
            <mxPoint x="690" y="340" as="targetPoint" />
            <Array as="points">
              <mxPoint x="670" y="350" />
            </Array>
            <mxPoint as="offset" />
          </mxGeometry>
        </mxCell>
        <mxCell id="S8HFpGUDUiRMA5G_zweh-36" value="2: main_menu.jsp" style="html=1;verticalAlign=bottom;endArrow=open;dashed=1;endSize=8;curved=0;rounded=0;" parent="1" edge="1">
          <mxGeometry x="0.0016" relative="1" as="geometry">
            <mxPoint x="749.5" y="384" as="sourcePoint" />
            <mxPoint x="585" y="384" as="targetPoint" />
            <mxPoint as="offset" />
          </mxGeometry>
        </mxCell>
        <mxCell id="S8HFpGUDUiRMA5G_zweh-37" value=":System" style="shape=umlLifeline;perimeter=lifelinePerimeter;whiteSpace=wrap;html=1;container=1;dropTarget=0;collapsible=0;recursiveResize=0;outlineConnect=0;portConstraint=eastwest;newEdgeStyle={&quot;edgeStyle&quot;:&quot;elbowEdgeStyle&quot;,&quot;elbow&quot;:&quot;vertical&quot;,&quot;curved&quot;:0,&quot;rounded&quot;:0};" parent="1" vertex="1">
          <mxGeometry x="710" y="280" width="100" height="200" as="geometry" />
        </mxCell>
        <mxCell id="S8HFpGUDUiRMA5G_zweh-38" value="" style="html=1;points=[[0,0,0,0,5],[0,1,0,0,-5],[1,0,0,0,5],[1,1,0,0,-5]];perimeter=orthogonalPerimeter;outlineConnect=0;targetShapes=umlLifeline;portConstraint=eastwest;newEdgeStyle={&quot;curved&quot;:0,&quot;rounded&quot;:0};" parent="S8HFpGUDUiRMA5G_zweh-37" vertex="1">
          <mxGeometry x="45" y="55" width="10" height="135" as="geometry" />
        </mxCell>
      </root>
    </mxGraphModel>
  </diagram>
</mxfile>
